<mxfile host="app.diagrams.net" modified="2023-09-19T05:05:23.195Z" agent="Mozilla/5.0 (Windows NT 10.0; Win64; x64) AppleWebKit/537.36 (KHTML, like Gecko) Chrome/116.0.0.0 Safari/537.36" etag="J2P7XFFQc-fMu6Dfj0Zo" version="21.7.5" type="device">
  <diagram id="C5RBs43oDa-KdzZeNtuy" name="Page-1">
    <mxGraphModel dx="1247" dy="659" grid="0" gridSize="10" guides="1" tooltips="1" connect="1" arrows="1" fold="1" page="1" pageScale="1" pageWidth="827" pageHeight="1169" math="0" shadow="0">
      <root>
        <mxCell id="WIyWlLk6GJQsqaUBKTNV-0" />
        <mxCell id="WIyWlLk6GJQsqaUBKTNV-1" parent="WIyWlLk6GJQsqaUBKTNV-0" />
        <mxCell id="p8BFKP465fhOb9F-RIUU-540" value="&lt;font style=&quot;font-size: 15px;&quot;&gt;set_mas&lt;/font&gt;" style="rounded=1;whiteSpace=wrap;html=1;fontSize=14;glass=0;strokeWidth=1;shadow=0;" vertex="1" parent="WIyWlLk6GJQsqaUBKTNV-1">
          <mxGeometry x="292.5" y="334.9966666666668" width="120" height="40" as="geometry" />
        </mxCell>
        <mxCell id="p8BFKP465fhOb9F-RIUU-541" value="Конец" style="rounded=1;whiteSpace=wrap;html=1;fontSize=12;glass=0;strokeWidth=1;shadow=0;" vertex="1" parent="WIyWlLk6GJQsqaUBKTNV-1">
          <mxGeometry x="298.5" y="881.3266666666666" width="120" height="40" as="geometry" />
        </mxCell>
        <mxCell id="p8BFKP465fhOb9F-RIUU-542" value="Вход. пар-ры: double* mas, int n, double* rezmas&lt;br&gt;Возвр. знач.: rezmas, set_mas" style="text;html=1;strokeColor=none;fillColor=none;align=left;verticalAlign=middle;whiteSpace=wrap;rounded=0;" vertex="1" parent="WIyWlLk6GJQsqaUBKTNV-1">
          <mxGeometry x="482.5" y="340" width="279.5" height="30" as="geometry" />
        </mxCell>
        <mxCell id="p8BFKP465fhOb9F-RIUU-543" value="" style="endArrow=none;html=1;rounded=0;entryX=1;entryY=0.5;entryDx=0;entryDy=0;exitX=0;exitY=0.5;exitDx=0;exitDy=0;" edge="1" parent="WIyWlLk6GJQsqaUBKTNV-1" source="p8BFKP465fhOb9F-RIUU-542" target="p8BFKP465fhOb9F-RIUU-540">
          <mxGeometry width="50" height="50" relative="1" as="geometry">
            <mxPoint x="392.5" y="424.9966666666668" as="sourcePoint" />
            <mxPoint x="442.5" y="374.9966666666668" as="targetPoint" />
          </mxGeometry>
        </mxCell>
        <mxCell id="p8BFKP465fhOb9F-RIUU-544" value="" style="endArrow=none;html=1;rounded=0;" edge="1" parent="WIyWlLk6GJQsqaUBKTNV-1">
          <mxGeometry width="50" height="50" relative="1" as="geometry">
            <mxPoint x="482.5" y="334.9966666666668" as="sourcePoint" />
            <mxPoint x="482.5" y="354.9966666666668" as="targetPoint" />
          </mxGeometry>
        </mxCell>
        <mxCell id="p8BFKP465fhOb9F-RIUU-545" value="" style="endArrow=none;html=1;rounded=0;" edge="1" parent="WIyWlLk6GJQsqaUBKTNV-1">
          <mxGeometry width="50" height="50" relative="1" as="geometry">
            <mxPoint x="482.5" y="374.9966666666668" as="sourcePoint" />
            <mxPoint x="482.5" y="354.9966666666668" as="targetPoint" />
          </mxGeometry>
        </mxCell>
        <mxCell id="p8BFKP465fhOb9F-RIUU-546" value="" style="endArrow=none;html=1;rounded=0;" edge="1" parent="WIyWlLk6GJQsqaUBKTNV-1">
          <mxGeometry width="50" height="50" relative="1" as="geometry">
            <mxPoint x="482.5" y="374.9966666666668" as="sourcePoint" />
            <mxPoint x="522.5" y="374.9966666666668" as="targetPoint" />
          </mxGeometry>
        </mxCell>
        <mxCell id="p8BFKP465fhOb9F-RIUU-547" value="" style="endArrow=none;html=1;rounded=0;" edge="1" parent="WIyWlLk6GJQsqaUBKTNV-1">
          <mxGeometry width="50" height="50" relative="1" as="geometry">
            <mxPoint x="482.5" y="334.9966666666668" as="sourcePoint" />
            <mxPoint x="522.5" y="334.9966666666668" as="targetPoint" />
          </mxGeometry>
        </mxCell>
        <mxCell id="p8BFKP465fhOb9F-RIUU-549" value="" style="endArrow=none;html=1;rounded=0;exitX=0.5;exitY=1;exitDx=0;exitDy=0;entryX=0.5;entryY=0;entryDx=0;entryDy=0;" edge="1" parent="WIyWlLk6GJQsqaUBKTNV-1" source="p8BFKP465fhOb9F-RIUU-540">
          <mxGeometry width="50" height="50" relative="1" as="geometry">
            <mxPoint x="520.5" y="649.9966666666667" as="sourcePoint" />
            <mxPoint x="352.5" y="424.9966666666668" as="targetPoint" />
          </mxGeometry>
        </mxCell>
        <mxCell id="p8BFKP465fhOb9F-RIUU-550" value="&lt;font style=&quot;font-size: 12px;&quot;&gt;cou = count_in_bounds(mas, n)&lt;br&gt;set_mas&amp;nbsp;= 0&lt;br&gt;&lt;/font&gt;" style="rounded=0;whiteSpace=wrap;html=1;" vertex="1" parent="WIyWlLk6GJQsqaUBKTNV-1">
          <mxGeometry x="280.25" y="424" width="144.5" height="60" as="geometry" />
        </mxCell>
        <mxCell id="p8BFKP465fhOb9F-RIUU-551" value="&lt;font style=&quot;font-size: 21px;&quot;&gt;i = 0..n&lt;/font&gt;" style="shape=hexagon;perimeter=hexagonPerimeter2;whiteSpace=wrap;html=1;fixedSize=1;" vertex="1" parent="WIyWlLk6GJQsqaUBKTNV-1">
          <mxGeometry x="292.5" y="508.33000000000004" width="120" height="80" as="geometry" />
        </mxCell>
        <mxCell id="p8BFKP465fhOb9F-RIUU-552" value="" style="endArrow=none;html=1;rounded=0;exitX=0.5;exitY=0;exitDx=0;exitDy=0;entryX=0.5;entryY=1;entryDx=0;entryDy=0;" edge="1" parent="WIyWlLk6GJQsqaUBKTNV-1" source="p8BFKP465fhOb9F-RIUU-551" target="p8BFKP465fhOb9F-RIUU-550">
          <mxGeometry width="50" height="50" relative="1" as="geometry">
            <mxPoint x="548" y="507.33000000000004" as="sourcePoint" />
            <mxPoint x="598" y="457.33000000000004" as="targetPoint" />
          </mxGeometry>
        </mxCell>
        <mxCell id="p8BFKP465fhOb9F-RIUU-554" value="" style="endArrow=none;html=1;rounded=0;exitX=0.5;exitY=1;exitDx=0;exitDy=0;entryX=0.5;entryY=0;entryDx=0;entryDy=0;" edge="1" parent="WIyWlLk6GJQsqaUBKTNV-1" source="p8BFKP465fhOb9F-RIUU-551">
          <mxGeometry width="50" height="50" relative="1" as="geometry">
            <mxPoint x="548" y="669.3299999999999" as="sourcePoint" />
            <mxPoint x="352.5" y="612.3299999999999" as="targetPoint" />
          </mxGeometry>
        </mxCell>
        <mxCell id="p8BFKP465fhOb9F-RIUU-557" value="" style="endArrow=none;html=1;rounded=0;" edge="1" parent="WIyWlLk6GJQsqaUBKTNV-1">
          <mxGeometry width="50" height="50" relative="1" as="geometry">
            <mxPoint x="250" y="815.3299999999999" as="sourcePoint" />
            <mxPoint x="250" y="549.33" as="targetPoint" />
          </mxGeometry>
        </mxCell>
        <mxCell id="p8BFKP465fhOb9F-RIUU-558" value="" style="endArrow=classic;html=1;rounded=0;entryX=0;entryY=0.5;entryDx=0;entryDy=0;" edge="1" parent="WIyWlLk6GJQsqaUBKTNV-1" target="p8BFKP465fhOb9F-RIUU-551">
          <mxGeometry width="50" height="50" relative="1" as="geometry">
            <mxPoint x="250" y="548.33" as="sourcePoint" />
            <mxPoint x="305" y="539.33" as="targetPoint" />
          </mxGeometry>
        </mxCell>
        <mxCell id="p8BFKP465fhOb9F-RIUU-560" value="" style="endArrow=none;html=1;rounded=0;exitX=1;exitY=0.5;exitDx=0;exitDy=0;" edge="1" parent="WIyWlLk6GJQsqaUBKTNV-1" source="p8BFKP465fhOb9F-RIUU-551">
          <mxGeometry width="50" height="50" relative="1" as="geometry">
            <mxPoint x="400" y="637.3299999999999" as="sourcePoint" />
            <mxPoint x="449" y="548.33" as="targetPoint" />
          </mxGeometry>
        </mxCell>
        <mxCell id="p8BFKP465fhOb9F-RIUU-562" value="" style="endArrow=classic;html=1;rounded=0;entryX=0.5;entryY=0;entryDx=0;entryDy=0;" edge="1" parent="WIyWlLk6GJQsqaUBKTNV-1" target="p8BFKP465fhOb9F-RIUU-541">
          <mxGeometry width="50" height="50" relative="1" as="geometry">
            <mxPoint x="358.5" y="834.3299999999999" as="sourcePoint" />
            <mxPoint x="436.5" y="724.3299999999999" as="targetPoint" />
          </mxGeometry>
        </mxCell>
        <mxCell id="p8BFKP465fhOb9F-RIUU-563" value="" style="endArrow=none;html=1;rounded=0;" edge="1" parent="WIyWlLk6GJQsqaUBKTNV-1">
          <mxGeometry width="50" height="50" relative="1" as="geometry">
            <mxPoint x="358.5" y="834.3299999999999" as="sourcePoint" />
            <mxPoint x="452.5" y="834.3299999999999" as="targetPoint" />
          </mxGeometry>
        </mxCell>
        <mxCell id="p8BFKP465fhOb9F-RIUU-564" value="" style="endArrow=none;html=1;rounded=0;" edge="1" parent="WIyWlLk6GJQsqaUBKTNV-1">
          <mxGeometry width="50" height="50" relative="1" as="geometry">
            <mxPoint x="452" y="834.3299999999999" as="sourcePoint" />
            <mxPoint x="449" y="548" as="targetPoint" />
          </mxGeometry>
        </mxCell>
        <mxCell id="p8BFKP465fhOb9F-RIUU-565" value="&lt;font style=&quot;font-size: 16px;&quot;&gt;mas[i] &amp;lt; cou&lt;/font&gt;" style="rhombus;whiteSpace=wrap;html=1;" vertex="1" parent="WIyWlLk6GJQsqaUBKTNV-1">
          <mxGeometry x="289.5" y="608.3299999999999" width="126" height="80" as="geometry" />
        </mxCell>
        <mxCell id="p8BFKP465fhOb9F-RIUU-566" value="&lt;div&gt;rezmas[set_mas] = mas[i]&lt;/div&gt;&lt;div&gt;set_mas = set_mas + 1&lt;/div&gt;" style="rounded=0;whiteSpace=wrap;html=1;" vertex="1" parent="WIyWlLk6GJQsqaUBKTNV-1">
          <mxGeometry x="277" y="743" width="151" height="49" as="geometry" />
        </mxCell>
        <mxCell id="p8BFKP465fhOb9F-RIUU-567" value="" style="endArrow=none;html=1;rounded=0;entryX=0;entryY=0.5;entryDx=0;entryDy=0;" edge="1" parent="WIyWlLk6GJQsqaUBKTNV-1" target="p8BFKP465fhOb9F-RIUU-565">
          <mxGeometry width="50" height="50" relative="1" as="geometry">
            <mxPoint x="263" y="648.3299999999999" as="sourcePoint" />
            <mxPoint x="397" y="685.3299999999999" as="targetPoint" />
          </mxGeometry>
        </mxCell>
        <mxCell id="p8BFKP465fhOb9F-RIUU-568" value="" style="endArrow=none;html=1;rounded=0;" edge="1" parent="WIyWlLk6GJQsqaUBKTNV-1">
          <mxGeometry width="50" height="50" relative="1" as="geometry">
            <mxPoint x="263" y="648.3299999999999" as="sourcePoint" />
            <mxPoint x="262" y="717.3299999999999" as="targetPoint" />
          </mxGeometry>
        </mxCell>
        <mxCell id="p8BFKP465fhOb9F-RIUU-569" value="" style="endArrow=none;html=1;rounded=0;" edge="1" parent="WIyWlLk6GJQsqaUBKTNV-1">
          <mxGeometry width="50" height="50" relative="1" as="geometry">
            <mxPoint x="262" y="717.3299999999999" as="sourcePoint" />
            <mxPoint x="352" y="717.3299999999999" as="targetPoint" />
          </mxGeometry>
        </mxCell>
        <mxCell id="p8BFKP465fhOb9F-RIUU-570" value="" style="endArrow=none;html=1;rounded=0;exitX=0.5;exitY=0;exitDx=0;exitDy=0;" edge="1" parent="WIyWlLk6GJQsqaUBKTNV-1" source="p8BFKP465fhOb9F-RIUU-566">
          <mxGeometry width="50" height="50" relative="1" as="geometry">
            <mxPoint x="293" y="762.3299999999999" as="sourcePoint" />
            <mxPoint x="352" y="717.3299999999999" as="targetPoint" />
          </mxGeometry>
        </mxCell>
        <mxCell id="p8BFKP465fhOb9F-RIUU-571" value="Да" style="text;html=1;strokeColor=none;fillColor=none;align=center;verticalAlign=middle;whiteSpace=wrap;rounded=0;" vertex="1" parent="WIyWlLk6GJQsqaUBKTNV-1">
          <mxGeometry x="253" y="625.3299999999999" width="60" height="30" as="geometry" />
        </mxCell>
        <mxCell id="p8BFKP465fhOb9F-RIUU-572" value="" style="endArrow=none;html=1;rounded=0;exitX=0.5;exitY=1;exitDx=0;exitDy=0;" edge="1" parent="WIyWlLk6GJQsqaUBKTNV-1" source="p8BFKP465fhOb9F-RIUU-566">
          <mxGeometry width="50" height="50" relative="1" as="geometry">
            <mxPoint x="329" y="736.3299999999999" as="sourcePoint" />
            <mxPoint x="353" y="815.3299999999999" as="targetPoint" />
          </mxGeometry>
        </mxCell>
        <mxCell id="p8BFKP465fhOb9F-RIUU-573" value="" style="endArrow=none;html=1;rounded=0;" edge="1" parent="WIyWlLk6GJQsqaUBKTNV-1">
          <mxGeometry width="50" height="50" relative="1" as="geometry">
            <mxPoint x="353" y="815.3299999999999" as="sourcePoint" />
            <mxPoint x="250" y="815.3299999999999" as="targetPoint" />
          </mxGeometry>
        </mxCell>
        <mxCell id="p8BFKP465fhOb9F-RIUU-574" value="" style="endArrow=none;html=1;rounded=0;exitX=1;exitY=0.5;exitDx=0;exitDy=0;" edge="1" parent="WIyWlLk6GJQsqaUBKTNV-1">
          <mxGeometry width="50" height="50" relative="1" as="geometry">
            <mxPoint x="433" y="648.3299999999999" as="sourcePoint" />
            <mxPoint x="433" y="815.3299999999999" as="targetPoint" />
          </mxGeometry>
        </mxCell>
        <mxCell id="p8BFKP465fhOb9F-RIUU-575" value="" style="endArrow=classic;html=1;rounded=0;" edge="1" parent="WIyWlLk6GJQsqaUBKTNV-1">
          <mxGeometry width="50" height="50" relative="1" as="geometry">
            <mxPoint x="433" y="815" as="sourcePoint" />
            <mxPoint x="353" y="815.3299999999999" as="targetPoint" />
          </mxGeometry>
        </mxCell>
        <mxCell id="p8BFKP465fhOb9F-RIUU-576" value="" style="endArrow=none;html=1;rounded=0;exitX=1;exitY=0.5;exitDx=0;exitDy=0;" edge="1" parent="WIyWlLk6GJQsqaUBKTNV-1" source="p8BFKP465fhOb9F-RIUU-565">
          <mxGeometry width="50" height="50" relative="1" as="geometry">
            <mxPoint x="417" y="644" as="sourcePoint" />
            <mxPoint x="433" y="648" as="targetPoint" />
          </mxGeometry>
        </mxCell>
        <mxCell id="p8BFKP465fhOb9F-RIUU-577" value="Нет" style="text;html=1;strokeColor=none;fillColor=none;align=center;verticalAlign=middle;whiteSpace=wrap;rounded=0;" vertex="1" parent="WIyWlLk6GJQsqaUBKTNV-1">
          <mxGeometry x="391" y="623" width="60" height="30" as="geometry" />
        </mxCell>
      </root>
    </mxGraphModel>
  </diagram>
</mxfile>
